<svg width="102" height="102" viewBox="0 0 102 102" fill="none" xmlns="http://www.w3.org/2000/svg">
<path d="M50.5081 56.8214C53.9949 56.8214 56.8216 53.9948 56.8216 50.5079C56.8216 47.0211 53.9949 44.1944 50.5081 44.1944C47.0212 44.1944 44.1946 47.0211 44.1946 50.5079C44.1946 53.9948 47.0212 56.8214 50.5081 56.8214Z" fill="black"/>
<path d="M81.7597 19.2578C77.6632 15.1208 72.7897 11.834 67.4191 9.58616C62.0486 7.33833 56.2868 6.1738 50.4648 6.15947C44.6428 6.14514 38.8753 7.28129 33.4938 9.50266C28.1122 11.724 23.2225 14.9868 19.1058 19.1036C14.989 23.2204 11.7262 28.11 9.50482 33.4916C7.28346 38.8732 6.1473 44.6406 6.16163 50.4626C6.17596 56.2846 7.34049 62.0464 9.58832 67.417C11.8362 72.7875 15.123 77.661 19.26 81.7575C23.3564 85.8945 28.23 89.1813 33.6005 91.4292C38.9711 93.677 44.7329 94.8415 50.5549 94.8559C56.3769 94.8702 62.1443 93.734 67.5259 91.5127C72.9075 89.2913 77.7971 86.0285 81.9139 81.9117C86.0307 77.7949 89.2935 72.9053 91.5148 67.5237C93.7362 62.1422 94.8724 56.3747 94.858 50.5527C94.8437 44.7307 93.6792 38.9689 91.4313 33.5984C89.1835 28.2278 85.8967 23.3543 81.7597 19.2578ZM50.5098 66.2914C47.3881 66.2914 44.3365 65.3657 41.7408 63.6314C39.1452 61.897 37.1222 59.4319 35.9275 56.5478C34.7329 53.6637 34.4203 50.4902 35.0294 47.4284C35.6384 44.3667 37.1416 41.5543 39.349 39.3469C41.5564 37.1395 44.3688 35.6362 47.4306 35.0272C50.4923 34.4182 53.6659 34.7307 56.55 35.9254C59.4341 37.12 61.8992 39.1431 63.6335 41.7387C65.3679 44.3343 66.2936 47.3859 66.2936 50.5077C66.2889 54.6923 64.6244 58.7043 61.6654 61.6633C58.7064 64.6223 54.6945 66.2867 50.5098 66.2914Z" fill="black"/>
</svg>
