<svg width="102" height="102" viewBox="0 0 102 102" fill="none" xmlns="http://www.w3.org/2000/svg">
<path d="M88.3885 18.9408C88.3897 16.727 87.8089 14.5518 86.7042 12.6333C85.5996 10.7148 84.01 9.12041 82.0948 8.01003C80.1796 6.89965 78.0061 6.3123 75.7924 6.30689C73.5786 6.30147 71.4023 6.87817 69.4816 7.97916C67.561 9.08015 65.9636 10.6667 64.8496 12.5798C63.7356 14.4929 63.1442 16.6653 63.1346 18.879C63.125 21.0928 63.6975 23.2702 64.7949 25.1929C65.8923 27.1156 67.4758 28.716 69.3868 29.8336C69.0336 33.9512 67.1238 37.3506 63.6908 39.953C60.1888 42.6165 55.2603 44.1948 50.5075 44.1948C45.7546 44.1948 40.8261 42.6165 37.3241 39.953C33.8911 37.3506 31.9813 33.9512 31.6281 29.8336C34.0267 28.4311 35.8957 26.2765 36.9455 23.7039C37.9952 21.1313 38.1671 18.2842 37.4345 15.604C36.7019 12.9238 35.1057 10.56 32.8933 8.87909C30.6808 7.19815 27.9757 6.2939 25.1972 6.30646C22.4187 6.31903 19.7219 7.24772 17.5248 8.94861C15.3276 10.6495 13.7529 13.0276 13.0445 15.7143C12.3362 18.4011 12.5338 21.2465 13.6068 23.8095C14.6798 26.3725 16.5682 28.51 18.9794 29.8908C19.3898 37.9543 23.1562 45.057 29.6946 50.0151C33.7964 53.1245 38.8669 55.281 44.1939 56.2477V71.1476C41.7867 72.5374 39.9053 74.6827 38.8416 77.2507C37.7779 79.8188 37.5913 82.6661 38.3107 85.351C39.0301 88.0359 40.6154 90.4084 42.8206 92.1005C45.0259 93.7927 47.7278 94.7099 50.5075 94.7099C53.2871 94.7099 55.989 93.7927 58.1943 92.1005C60.3995 90.4084 61.9848 88.0359 62.7042 85.351C63.4236 82.6661 63.237 79.8188 62.1733 77.2507C61.1096 74.6827 59.2282 72.5374 56.8209 71.1476V56.2477C62.148 55.281 67.2185 53.1245 71.3203 50.0151C77.8587 45.057 81.6251 37.9543 82.0355 29.8908C83.9645 28.7863 85.5678 27.1922 86.6833 25.2695C87.7989 23.3468 88.387 21.1637 88.3885 18.9408ZM25.2534 12.6273C26.5021 12.6273 27.7228 12.9976 28.761 13.6914C29.7993 14.3851 30.6085 15.3711 31.0864 16.5248C31.5642 17.6784 31.6892 18.9479 31.4456 20.1725C31.202 21.3972 30.6007 22.5222 29.7178 23.4052C28.8348 24.2881 27.7099 24.8894 26.4852 25.133C25.2605 25.3766 23.991 25.2516 22.8374 24.7738C21.6837 24.2959 20.6977 23.4867 20.004 22.4484C19.3102 21.4102 18.9399 20.1895 18.9399 18.9408C18.9399 17.2664 19.6051 15.6605 20.7891 14.4765C21.9731 13.2925 23.579 12.6273 25.2534 12.6273ZM50.5075 88.3893C49.2588 88.3893 48.0381 88.0191 46.9999 87.3253C45.9616 86.6316 45.1524 85.6456 44.6745 84.4919C44.1967 83.3383 44.0717 82.0688 44.3153 80.8441C44.5589 79.6194 45.1602 78.4945 46.0431 77.6115C46.9261 76.7286 48.051 76.1273 49.2757 75.8837C50.5004 75.64 51.7699 75.7651 52.9235 76.2429C54.0772 76.7208 55.0632 77.53 55.7569 78.5682C56.4507 79.6065 56.8209 80.8271 56.8209 82.0758C56.8209 83.7503 56.1558 85.3561 54.9718 86.5402C53.7878 87.7242 52.1819 88.3893 50.5075 88.3893ZM75.7615 25.2543C74.5128 25.2543 73.2921 24.8841 72.2539 24.1903C71.2156 23.4966 70.4064 22.5106 69.9285 21.3569C69.4507 20.2033 69.3257 18.9338 69.5693 17.7091C69.8129 16.4844 70.4142 15.3595 71.2971 14.4765C72.1801 13.5936 73.305 12.9923 74.5298 12.7487C75.7544 12.5051 77.0239 12.6301 78.1775 13.1079C79.3312 13.5858 80.3172 14.395 81.0109 15.4333C81.7047 16.4715 82.075 17.6922 82.075 18.9408C82.075 20.6153 81.4098 22.2212 80.2258 23.4052C79.0418 24.5892 77.4359 25.2543 75.7615 25.2543Z" fill="black"/>
</svg>
