<svg width="102" height="102" viewBox="0 0 102 102" fill="none" xmlns="http://www.w3.org/2000/svg">
<path d="M51.6045 19.9826C51.3108 19.7016 50.92 19.5448 50.5135 19.5448C50.107 19.5448 49.7161 19.7016 49.4224 19.9826L13.1001 54.6812C12.9458 54.8288 12.8231 55.0061 12.7393 55.2024C12.6556 55.3988 12.6125 55.6101 12.6127 55.8236L12.6068 88.3894C12.6068 90.0638 13.272 91.6697 14.456 92.8537C15.64 94.0377 17.2459 94.7029 18.9203 94.7029H37.8805C38.7178 94.7029 39.5207 94.3703 40.1127 93.7783C40.7047 93.1863 41.0373 92.3834 41.0373 91.5461V64.7138C41.0373 64.2952 41.2036 63.8937 41.4996 63.5977C41.7956 63.3017 42.1971 63.1354 42.6157 63.1354H58.3994C58.818 63.1354 59.2195 63.3017 59.5155 63.5977C59.8115 63.8937 59.9778 64.2952 59.9778 64.7138V91.5461C59.9778 92.3834 60.3104 93.1863 60.9024 93.7783C61.4944 94.3703 62.2973 94.7029 63.1345 94.7029H82.0869C83.7613 94.7029 85.3672 94.0377 86.5512 92.8537C87.7352 91.6697 88.4004 90.0638 88.4004 88.3894V55.8236C88.4006 55.6101 88.3576 55.3988 88.2738 55.2024C88.19 55.0061 88.0673 54.8288 87.913 54.6812L51.6045 19.9826Z" fill="black"/>
<path d="M96.8554 48.17L82.0976 34.0514V12.627C82.0976 11.7898 81.765 10.9868 81.173 10.3948C80.581 9.80281 79.7781 9.47023 78.9409 9.47023H69.4706C68.6334 9.47023 67.8305 9.80281 67.2385 10.3948C66.6465 10.9868 66.3139 11.7898 66.3139 12.627V18.9405L54.8864 8.01418C53.8171 6.93299 52.2269 6.31348 50.5084 6.31348C48.7959 6.31348 47.2096 6.93299 46.1403 8.01615L4.17523 48.1661C2.94804 49.3498 2.79415 51.2972 3.91085 52.5796C4.19127 52.9033 4.53463 53.1666 4.92002 53.3533C5.30542 53.5401 5.72479 53.6466 6.15262 53.6661C6.58045 53.6857 7.00778 53.618 7.40862 53.4671C7.80945 53.3163 8.1754 53.0855 8.48419 52.7887L49.4233 13.6687C49.717 13.3877 50.1079 13.2309 50.5143 13.2309C50.9208 13.2309 51.3117 13.3877 51.6054 13.6687L92.5484 52.7887C93.1516 53.3671 93.9594 53.6827 94.7949 53.6665C95.6303 53.6502 96.4252 53.3033 97.0054 52.7019C98.2168 51.4471 98.1162 49.3755 96.8554 48.17Z" fill="black"/>
</svg>
