<svg width="80" height="76" viewBox="0 0 80 76" fill="none" xmlns="http://www.w3.org/2000/svg">
<path d="M72.5379 63.255L53.247 45.0742C56.3558 41.0485 58.0282 36.1968 58.0231 31.2181C58.0231 18.1867 46.7716 7.58441 32.9425 7.58441C19.1133 7.58441 7.86188 18.1867 7.86188 31.2181C7.86188 44.2494 19.1133 54.8517 32.9425 54.8517C38.226 54.8565 43.3748 53.2806 47.6469 50.3512L66.9409 68.5291L72.5379 63.255ZM32.9425 47.3875C29.5483 47.3877 26.2301 46.4395 23.4078 44.6628C20.5855 42.886 18.3857 40.3605 17.0866 37.4056C15.7876 34.4507 15.4476 31.1992 16.1097 28.0622C16.7718 24.9252 18.4062 22.0437 20.8063 19.7821C23.2064 17.5205 26.2644 15.9803 29.5934 15.3564C32.9224 14.7325 36.373 15.0528 39.5088 16.277C42.6447 17.5011 45.3248 19.574 47.2104 22.2335C49.0959 24.893 50.1021 28.0196 50.1018 31.2181C50.0965 35.5049 48.2869 39.6147 45.0701 42.646C41.8532 45.6772 37.4918 47.3824 32.9425 47.3875Z" fill="white"/>
<path d="M29.3569 32.993C28.9022 32.993 28.5122 33.1934 28.1974 33.6026C27.8826 34.0118 27.7277 34.5071 27.7277 35.0969C27.7277 35.6867 27.8877 36.1917 28.1974 36.5965C28.5071 37.0013 28.897 37.207 29.3569 37.207C29.7813 37.207 30.1498 37.0021 30.4614 36.5974C30.7729 36.1926 30.9311 35.6929 30.9311 35.0978C30.9311 34.5027 30.7711 34.0074 30.4614 33.6035C30.1517 33.1995 29.7832 32.993 29.3569 32.993ZM37.1675 32.993C36.7178 32.993 36.3228 33.1934 36.008 33.6026C35.6931 34.0118 35.5383 34.5071 35.5383 35.0969C35.5383 35.6867 35.6983 36.1917 36.008 36.5965C36.3177 37.0013 36.7127 37.207 37.1675 37.207C37.5924 37.207 37.9604 37.0021 38.2771 36.5974C38.5938 36.1926 38.7467 35.6929 38.7467 35.0978C38.7467 34.5027 38.5868 34.0074 38.2771 33.6035C37.9674 33.1995 37.5975 32.993 37.1675 32.993Z" fill="#7000FF"/>
<path d="M42.7194 27.4938C42.7142 27.4938 42.8542 26.813 42.7343 25.6272C42.6242 24.4405 42.3612 23.3514 41.9297 22.3516C41.9297 22.3516 41.7096 22.3898 41.2898 22.4896C40.87 22.5893 40.184 22.7911 39.246 23.1945C38.3216 23.5989 37.3472 24.1368 36.3328 24.7895C35.6429 24.6036 34.6136 24.5087 33.2344 24.5087C31.92 24.5087 30.8907 24.6036 30.136 24.7895C27.9075 23.318 26.0401 22.5054 24.5339 22.3516C24.1045 23.3516 23.838 24.4467 23.7345 25.6369C23.6146 26.8235 23.7545 27.5083 23.7545 27.5083C22.54 28.7604 22.0405 30.565 22.0405 32.055C22.0405 33.2073 22.0754 34.2498 22.3455 35.1754C22.6253 36.0944 22.9798 36.8456 23.3996 37.4231C23.8339 38.0071 24.3675 38.5195 24.9789 38.9398C25.6034 39.3828 26.178 39.7019 26.6981 39.9019C27.2228 40.1111 27.8175 40.2636 28.497 40.373C29.0007 40.4648 29.5096 40.5285 30.0213 40.5638C30.0213 40.5638 31.4205 40.635 33.2395 40.635C35.0585 40.635 36.4526 40.5638 36.4526 40.5638C36.9642 40.5274 37.4732 40.4631 37.9769 40.3713C38.5916 40.2778 39.1933 40.1197 39.7707 39.9001C40.2908 39.6953 40.8654 39.3811 41.4964 38.938C42.1076 38.5184 42.6396 38.0051 43.0706 37.4196C43.4904 36.8434 43.8448 36.0909 44.1247 35.1719C44.4045 34.2529 44.4283 33.2025 44.4283 32.0501C44.4283 30.6077 43.9288 28.7793 42.7194 27.4938ZM39.4512 38.6163C38.0566 39.24 36.0077 39.4923 33.2894 39.4923H33.1845C30.4658 39.4923 28.4168 39.2448 27.0479 38.6163C25.679 37.9878 24.984 36.7067 24.984 34.7737C24.984 33.617 25.4136 32.6791 26.2582 31.9609C26.6281 31.6532 27.0777 31.437 27.6374 31.3087C28.1971 31.1803 28.7069 31.1768 29.1864 31.1896C29.6565 31.2085 30.316 31.2942 31.1505 31.3561C31.9849 31.4181 32.6145 31.499 33.2395 31.499C33.8239 31.499 34.5986 31.4036 35.843 31.3087C37.0874 31.2137 38.017 31.1658 38.6163 31.2608C39.2311 31.3561 39.766 31.5561 40.2208 31.9609C41.1051 32.713 41.5482 33.6507 41.5501 34.7737C41.5449 36.7067 40.8402 37.9927 39.4512 38.6163Z" fill="#7000FF"/>
</svg>
