<svg width="102" height="102" viewBox="0 0 102 102" fill="none" xmlns="http://www.w3.org/2000/svg">
<path d="M11.5989 86.6388C10.9775 86.4248 10.4383 86.0221 10.0567 85.487C9.67509 84.9519 9.47001 84.311 9.47009 83.6537C9.47009 69.2313 12.3664 57.6974 18.0821 49.3694C24.9875 39.3073 35.8803 33.8895 50.5078 33.2168V17.362C50.5079 16.7439 50.6894 16.1393 51.0299 15.6234C51.3704 15.1075 51.8548 14.7029 52.4232 14.4599C52.9915 14.2168 53.6187 14.1459 54.2269 14.256C54.8351 14.3661 55.3977 14.6524 55.8447 15.0793L90.569 48.2251C90.8775 48.5199 91.1232 48.8741 91.291 49.2665C91.4588 49.6588 91.5453 50.0811 91.5453 50.5079C91.5453 50.9346 91.4588 51.3569 91.291 51.7492C91.1232 52.1416 90.8775 52.4958 90.569 52.7906L55.8447 85.9365C55.3977 86.3633 54.8351 86.6496 54.2269 86.7597C53.6187 86.8698 52.9915 86.7989 52.4232 86.5558C51.8548 86.3128 51.3704 85.9082 51.0299 85.3923C50.6894 84.8764 50.5079 84.2719 50.5078 83.6537V67.9154C41.6295 68.1837 34.9214 69.622 29.5806 72.3822C23.8096 75.3653 19.625 79.8222 15.1148 85.601C14.7101 86.1191 14.1539 86.498 13.5236 86.6847C12.8933 86.8715 12.2205 86.8568 11.5989 86.6428V86.6388Z" fill="black"/>
</svg>
