<svg width="102" height="102" viewBox="0 0 102 102" fill="none" xmlns="http://www.w3.org/2000/svg">
<path d="M88.3871 86.8103C87.9075 86.8103 87.4341 86.7011 87.0031 86.4908C86.572 86.2806 86.1945 85.9749 85.8992 85.5969C81.389 79.822 77.2043 75.3651 71.4334 72.378C66.0926 69.6218 59.3845 68.1835 50.5061 67.9151V83.6535C50.5042 84.2697 50.3221 84.8718 49.9821 85.3857C49.6421 85.8996 49.1591 86.3027 48.5927 86.5454C48.0264 86.7881 47.4014 86.8598 46.7948 86.7515C46.1882 86.6433 45.6265 86.3599 45.1791 85.9362L10.4548 52.7904C10.1463 52.4956 9.90065 52.1414 9.73284 51.749C9.56503 51.3567 9.47852 50.9344 9.47852 50.5076C9.47852 50.0809 9.56503 49.6586 9.73284 49.2663C9.90065 48.8739 10.1463 48.5197 10.4548 48.2249L45.1791 15.079C45.6265 14.6554 46.1882 14.372 46.7948 14.2638C47.4014 14.1555 48.0264 14.2271 48.5927 14.4698C49.1591 14.7125 49.6421 15.1157 49.9821 15.6296C50.3221 16.1434 50.5042 16.7456 50.5061 17.3618V33.2165C65.1337 33.8893 76.0324 39.315 82.9318 49.3692C88.6475 57.6971 91.5439 69.2311 91.5439 83.6535C91.5439 84.4907 91.2113 85.2937 90.6193 85.8857C90.0273 86.4777 89.2243 86.8103 88.3871 86.8103Z" fill="black"/>
</svg>
