<svg width="100" height="100" viewBox="0 0 100 100" fill="none" xmlns="http://www.w3.org/2000/svg">
<path d="M76.9538 93.7503C76.2961 93.7529 75.6543 93.5478 75.1198 93.1644L50.0007 74.9534L24.8816 93.1644C24.3449 93.5536 23.6984 93.7621 23.0354 93.7597C22.3725 93.7573 21.7275 93.5441 21.1937 93.151C20.6599 92.7578 20.2649 92.2051 20.0659 91.5727C19.8669 90.9404 19.8742 90.2611 20.0866 89.6331L29.8835 60.6155L4.49289 43.2034C3.94291 42.8267 3.52782 42.2839 3.30826 41.6545C3.0887 41.0251 3.07619 40.3419 3.27254 39.7048C3.4689 39.0678 3.86383 38.5102 4.39965 38.1136C4.93546 37.7169 5.58406 37.502 6.2507 37.5003H37.5749L47.028 8.4085C47.2317 7.78042 47.629 7.23298 48.1631 6.84471C48.6971 6.45645 49.3404 6.24731 50.0007 6.24731C50.661 6.24731 51.3043 6.45645 51.8383 6.84471C52.3724 7.23298 52.7697 7.78042 52.9734 8.4085L62.4265 37.5101H93.7507C94.4182 37.5097 95.0682 37.7231 95.6056 38.119C96.143 38.5149 96.5396 39.0724 96.7372 39.7099C96.9348 40.3475 96.923 41.0316 96.7037 41.662C96.4844 42.2924 96.0689 42.836 95.5183 43.2132L70.1179 60.6155L79.9089 89.6253C80.0675 90.095 80.1122 90.5956 80.0391 91.086C79.966 91.5763 79.7773 92.0422 79.4886 92.4452C79.1999 92.8482 78.8195 93.1767 78.3787 93.4037C77.938 93.6306 77.4496 93.7494 76.9538 93.7503Z" fill="black"/>
</svg>
