<svg width="102" height="102" viewBox="0 0 102 102" fill="none" xmlns="http://www.w3.org/2000/svg">
<path d="M88.3886 9.47009H12.6266C9.13976 9.47009 6.31311 12.2967 6.31311 15.7836V18.9403C6.31311 22.4272 9.13976 25.2538 12.6266 25.2538H88.3886C91.8755 25.2538 94.7021 22.4272 94.7021 18.9403V15.7836C94.7021 12.2967 91.8755 9.47009 88.3886 9.47009Z" fill="black"/>
<path d="M14.6903 31.5673C14.4685 31.5661 14.2489 31.6117 14.0459 31.701C13.8429 31.7904 13.661 31.9215 13.5121 32.0859C13.3631 32.2503 13.2505 32.4442 13.1816 32.655C13.1126 32.8658 13.0889 33.0888 13.1119 33.3094L18.3028 83.1387C18.3017 83.1532 18.3017 83.1677 18.3028 83.1821C18.574 85.4869 19.682 87.6118 21.4165 89.1535C23.151 90.6953 25.3912 91.5465 27.7119 91.5455H73.3052C75.6252 91.5455 77.8644 90.6938 79.5981 89.1522C81.3317 87.6106 82.4392 85.4862 82.7103 83.1821V83.1407L87.8933 33.3094C87.9164 33.0888 87.8926 32.8658 87.8237 32.655C87.7547 32.4442 87.6421 32.2503 87.4932 32.0859C87.3443 31.9215 87.1624 31.7904 86.9593 31.701C86.7563 31.6117 86.5368 31.5661 86.315 31.5673H14.6903ZM63.7896 67.2169C64.0897 67.5084 64.3288 67.8568 64.4931 68.2416C64.6574 68.6265 64.7435 69.0401 64.7465 69.4585C64.7494 69.877 64.6692 70.2918 64.5104 70.6789C64.3516 71.0661 64.1174 71.4178 63.8215 71.7136C63.5255 72.0094 63.1737 72.2434 62.7865 72.402C62.3993 72.5607 61.9844 72.6407 61.566 72.6376C61.1476 72.6344 60.734 72.5481 60.3492 72.3837C59.9644 72.2192 59.6162 71.9799 59.3248 71.6797L50.5095 62.8645L41.6923 71.6797C41.0976 72.2576 40.2994 72.5782 39.4702 72.5723C38.641 72.5665 37.8474 72.2345 37.2609 71.6483C36.6744 71.0621 36.3421 70.2686 36.3359 69.4394C36.3296 68.6102 36.6499 67.8118 37.2275 67.2169L46.0447 58.3997L37.2275 49.5825C36.6499 48.9875 36.3296 48.1891 36.3359 47.3599C36.3421 46.5307 36.6744 45.7372 37.2609 45.151C37.8474 44.5648 38.641 44.2329 39.4702 44.227C40.2994 44.2211 41.0976 44.5418 41.6923 45.1196L50.5095 53.9348L59.3248 45.1196C59.9195 44.5418 60.7177 44.2211 61.5469 44.227C62.3761 44.2329 63.1697 44.5648 63.7562 45.151C64.3427 45.7372 64.675 46.5307 64.6812 47.3599C64.6875 48.1891 64.3672 48.9875 63.7896 49.5825L54.9724 58.3997L63.7896 67.2169Z" fill="black"/>
</svg>
