<svg width="102" height="102" viewBox="0 0 102 102" fill="none" xmlns="http://www.w3.org/2000/svg">
<path d="M50.5081 63.135C57.4818 63.135 63.1351 57.4817 63.1351 50.508C63.1351 43.5343 57.4818 37.881 50.5081 37.881C43.5344 37.881 37.8811 43.5343 37.8811 50.508C37.8811 57.4817 43.5344 63.135 50.5081 63.135Z" fill="black"/>
<path d="M96.8411 47.0751C91.6206 39.0017 84.8474 32.1437 77.2554 27.2408C68.8565 21.8112 59.5835 18.9406 50.4408 18.9406C42.0517 18.9406 33.8028 21.3377 25.9227 26.0649C17.8868 30.8849 10.6066 37.9264 4.28321 46.9922C3.56936 48.0168 3.17621 49.2305 3.15373 50.479C3.13125 51.7275 3.48044 52.9545 4.15694 54.0042C9.36755 62.1584 16.0737 69.0263 23.5473 73.8621C31.962 79.3134 41.0179 82.0756 50.4408 82.0756C59.6565 82.0756 68.9492 79.2286 77.3126 73.8443C84.9007 68.9573 91.6601 62.0736 96.8608 53.9331C97.514 52.9079 97.8593 51.7168 97.8558 50.5012C97.8523 49.2856 97.5002 48.0965 96.8411 47.0751V47.0751ZM50.5079 69.4486C46.7618 69.4486 43.0999 68.3377 39.9851 66.2565C36.8704 64.1753 34.4427 61.2172 33.0092 57.7563C31.5756 54.2953 31.2005 50.487 31.9313 46.8129C32.6622 43.1388 34.4661 39.764 37.1149 37.1151C39.7638 34.4662 43.1387 32.6623 46.8128 31.9315C50.4869 31.2007 54.2952 31.5758 57.7561 33.0093C61.217 34.4429 64.1751 36.8705 66.2563 39.9853C68.3375 43.1 69.4484 46.762 69.4484 50.5081C69.4426 55.5296 67.4453 60.3439 63.8945 63.8947C60.3437 67.4455 55.5295 69.4428 50.5079 69.4486V69.4486Z" fill="black"/>
</svg>
