<svg width="34" height="32" viewBox="0 0 34 32" fill="none" xmlns="http://www.w3.org/2000/svg">
<path d="M30.7757 26.7501L22.5459 18.9938C23.8722 17.2764 24.5857 15.2066 24.5835 13.0826C24.5835 7.52319 19.7834 3.00006 13.8837 3.00006C7.98395 3.00006 3.1839 7.52319 3.1839 13.0826C3.1839 18.6419 7.98395 23.1651 13.8837 23.1651C16.1377 23.1671 18.3343 22.4948 20.1569 21.2451L28.388 29.0001L30.7757 26.7501ZM13.8837 19.9807C12.4357 19.9808 11.0201 19.5763 9.81605 18.8183C8.612 18.0603 7.67352 16.9829 7.11932 15.7223C6.56512 14.4617 6.42008 13.0745 6.70255 11.7362C6.98502 10.3979 7.6823 9.16863 8.70622 8.20378C9.73013 7.23894 11.0347 6.58188 12.4549 6.31571C13.8751 6.04954 15.3472 6.18621 16.685 6.70844C18.0228 7.23067 19.1662 8.115 19.9706 9.24959C20.775 10.3842 21.2043 11.7181 21.2042 13.0826C21.2019 14.9114 20.4299 16.6647 19.0575 17.9579C17.6852 19.2511 15.8245 19.9785 13.8837 19.9807V19.9807Z" fill="white"/>
<path d="M12.354 13.8398C12.16 13.8398 11.9937 13.9253 11.8594 14.0998C11.7251 14.2744 11.659 14.4857 11.659 14.7373C11.659 14.989 11.7272 15.2044 11.8594 15.3771C11.9915 15.5498 12.1578 15.6375 12.354 15.6375C12.5351 15.6375 12.6923 15.5502 12.8252 15.3775C12.9581 15.2048 13.0256 14.9916 13.0256 14.7377C13.0256 14.4838 12.9573 14.2725 12.8252 14.1002C12.6931 13.9279 12.5359 13.8398 12.354 13.8398ZM15.6861 13.8398C15.4943 13.8398 15.3258 13.9253 15.1915 14.0998C15.0572 14.2744 14.9911 14.4857 14.9911 14.7373C14.9911 14.989 15.0594 15.2044 15.1915 15.3771C15.3236 15.5498 15.4921 15.6375 15.6861 15.6375C15.8674 15.6375 16.0244 15.5502 16.1595 15.3775C16.2946 15.2048 16.3599 14.9916 16.3599 14.7377C16.3599 14.4838 16.2916 14.2725 16.1595 14.1002C16.0274 13.9279 15.8696 13.8398 15.6861 13.8398V13.8398Z" fill="#7000FF"/>
<path d="M18.0547 11.4938C18.0525 11.4938 18.1122 11.2033 18.0611 10.6975C18.0141 10.1912 17.9019 9.72658 17.7178 9.30002C17.7178 9.30002 17.6239 9.31633 17.4448 9.35889C17.2657 9.40146 16.973 9.48752 16.5729 9.65964C16.1785 9.83214 15.7628 10.0616 15.3301 10.3401C15.0358 10.2608 14.5966 10.2203 14.0082 10.2203C13.4475 10.2203 13.0084 10.2608 12.6864 10.3401C11.7357 9.71233 10.939 9.36564 10.2965 9.30002C10.1133 9.72664 9.99959 10.1938 9.95542 10.7016C9.90428 11.2078 9.96398 11.5 9.96398 11.5C9.44583 12.0341 9.23273 12.804 9.23273 13.4396C9.23273 13.9313 9.24765 14.376 9.36286 14.7709C9.48225 15.163 9.63347 15.4834 9.81255 15.7298C9.99784 15.9789 10.2255 16.1975 10.4863 16.3768C10.7527 16.5658 10.9979 16.702 11.2197 16.7873C11.4436 16.8765 11.6973 16.9416 11.9872 16.9883C12.2021 17.0274 12.4192 17.0546 12.6375 17.0696C12.6375 17.0696 13.2344 17.1 14.0104 17.1C14.7864 17.1 15.3812 17.0696 15.3812 17.0696C15.5995 17.0541 15.8166 17.0267 16.0315 16.9875C16.2937 16.9476 16.5504 16.8802 16.7967 16.7865C17.0186 16.6991 17.2637 16.5651 17.533 16.3761C17.7937 16.197 18.0207 15.9781 18.2045 15.7283C18.3836 15.4825 18.5348 15.1615 18.6542 14.7694C18.7736 14.3773 18.7837 13.9292 18.7837 13.4376C18.7837 12.8222 18.5706 12.0422 18.0547 11.4938V11.4938ZM16.6604 16.2388C16.0655 16.5049 15.1914 16.6125 14.0317 16.6125H13.9869C12.8271 16.6125 11.953 16.507 11.369 16.2388C10.785 15.9707 10.4885 15.4241 10.4885 14.5995C10.4885 14.106 10.6717 13.7059 11.0321 13.3995C11.1899 13.2683 11.3817 13.176 11.6205 13.1213C11.8593 13.0665 12.0767 13.065 12.2813 13.0705C12.4819 13.0785 12.7632 13.1151 13.1192 13.1415C13.4752 13.168 13.7438 13.2025 14.0104 13.2025C14.2597 13.2025 14.5903 13.1618 15.1211 13.1213C15.652 13.0808 16.0486 13.0603 16.3043 13.1008C16.5665 13.1415 16.7947 13.2268 16.9888 13.3995C17.366 13.7204 17.555 14.1204 17.5558 14.5995C17.5537 15.4241 17.253 15.9728 16.6604 16.2388V16.2388Z" fill="#7000FF"/>
</svg>
